<svg xmlns="http://www.w3.org/2000/svg" width="79.823" height="90.001" viewBox="0 0 79.823 90.001"><defs><style>.a{fill:#f7f4f7;}.b{fill:#edeaed;}.c{fill:#c1bcc4;}.d{fill:#e07f84;}.e{fill:#db636e;}.f{fill:#f4e066;}.g{fill:#665e66;}.h{fill:#eac173;}</style></defs><g transform="translate(-28.95)"><g transform="translate(28.95 0)"><path class="a" d="M86.56,15.6a3.429,3.429,0,0,1-3.429-3.429V1.251a.925.925,0,0,0-.521-.84A4.3,4.3,0,0,0,80.774,0H33.255A4.305,4.305,0,0,0,28.95,4.305V85.7A4.305,4.305,0,0,0,33.255,90H83.94A4.305,4.305,0,0,0,88.245,85.7V15.6Z" transform="translate(-28.95 0)"/><g transform="translate(54.024 4.722)"><path class="b" d="M350.784,37.057l-10.2-10.2v80.974a4.305,4.305,0,0,1-4.305,4.305h11.456a4.305,4.305,0,0,0,4.305-4.305V40.1A4.3,4.3,0,0,0,350.784,37.057Z" transform="translate(-336.283 -26.861)"/></g><path class="c" d="M333.914,2.2a4.314,4.314,0,0,1,1.261.874L348.831,16.73a4.3,4.3,0,0,1,.869,1.261H337.343a3.429,3.429,0,0,1-3.429-3.429Z" transform="translate(-280.306 -1.813)"/><path class="d" d="M269.02,219.523V178.671a3.357,3.357,0,0,0-3.357-3.357h-25.49a3.357,3.357,0,0,0-3.357,3.357v40.852a3.357,3.357,0,0,0,3.357,3.357h25.49A3.357,3.357,0,0,0,269.02,219.523Z" transform="translate(-200.277 -144.497)"/><path class="e" d="M410.565,175.314H399.179a3.357,3.357,0,0,1,3.357,3.357v40.852a3.357,3.357,0,0,1-3.357,3.357h11.386a3.357,3.357,0,0,0,3.357-3.357V178.671a3.357,3.357,0,0,0-3.357-3.357Z" transform="translate(-334.099 -144.497)"/><path class="f" d="M277.012,220.758v-6.951a1.044,1.044,0,0,1,1.044-1.045H305.12a1.044,1.044,0,0,1,1.044,1.045v6.951a1.044,1.044,0,0,1-1.044,1.044H278.057A1.045,1.045,0,0,1,277.012,220.758Z" transform="translate(-233.407 -175.363)"/><g transform="translate(8.756 8.187)"><path class="g" d="M98.381,256.463H80.122a1.358,1.358,0,0,0,0,2.716H98.381a1.358,1.358,0,0,0,0-2.716Z" transform="translate(-78.764 -219.568)"/><path class="g" d="M98.381,323.852H80.122a1.358,1.358,0,0,0,0,2.716H98.381a1.358,1.358,0,0,0,0-2.716Z" transform="translate(-78.764 -275.111)"/><path class="g" d="M98.381,391.241H80.122a1.358,1.358,0,1,0,0,2.716H98.381a1.358,1.358,0,1,0,0-2.716Z" transform="translate(-78.764 -330.654)"/><g transform="translate(33.491 44.332)"><path class="a" d="M273.527,298.774h-2.882a1.358,1.358,0,1,0,0,2.716h2.882a1.358,1.358,0,0,0,0-2.716Z" transform="translate(-269.286 -298.774)"/><path class="a" d="M323.342,298.774h-2.882a1.358,1.358,0,1,0,0,2.716h2.882a1.358,1.358,0,1,0,0-2.716Z" transform="translate(-310.344 -298.774)"/><path class="a" d="M373.157,298.774h-2.883a1.358,1.358,0,1,0,0,2.716h2.883a1.358,1.358,0,0,0,0-2.716Z" transform="translate(-351.403 -298.774)"/><path class="a" d="M420.09,301.49h2.882a1.358,1.358,0,1,0,0-2.716H420.09a1.358,1.358,0,1,0,0,2.716Z" transform="translate(-392.462 -298.774)"/><path class="a" d="M273.527,338.951h-2.882a1.358,1.358,0,1,0,0,2.716h2.882a1.358,1.358,0,0,0,0-2.716Z" transform="translate(-269.286 -331.889)"/><path class="a" d="M323.342,338.951h-2.882a1.358,1.358,0,1,0,0,2.716h2.882a1.358,1.358,0,1,0,0-2.716Z" transform="translate(-310.344 -331.889)"/><path class="a" d="M373.157,338.951h-2.883a1.358,1.358,0,1,0,0,2.716h2.883a1.358,1.358,0,0,0,0-2.716Z" transform="translate(-351.403 -331.889)"/><path class="a" d="M422.972,338.951H420.09a1.358,1.358,0,1,0,0,2.716h2.882a1.358,1.358,0,1,0,0-2.716Z" transform="translate(-392.462 -331.889)"/><path class="a" d="M273.527,379.128h-2.882a1.358,1.358,0,1,0,0,2.716h2.882a1.358,1.358,0,0,0,0-2.716Z" transform="translate(-269.286 -365.003)"/><path class="a" d="M323.342,379.128h-2.882a1.358,1.358,0,0,0,0,2.716h2.882a1.358,1.358,0,0,0,0-2.716Z" transform="translate(-310.344 -365.003)"/><path class="a" d="M373.157,379.128h-2.883a1.358,1.358,0,0,0,0,2.716h2.883a1.358,1.358,0,0,0,0-2.716Z" transform="translate(-351.403 -365.003)"/><path class="a" d="M422.972,379.128H420.09a1.358,1.358,0,0,0,0,2.716h2.882a1.358,1.358,0,0,0,0-2.716Z" transform="translate(-392.462 -365.003)"/></g><path class="h" d="M92.19,72.217A9.091,9.091,0,0,0,97.3,73.959v1.828a1.358,1.358,0,1,0,2.716,0v-1.93a7.335,7.335,0,0,0,5.9-6.047,6.43,6.43,0,0,0-4.428-7.356c-.53-.187-1.019-.367-1.473-.541v-7.6a4.9,4.9,0,0,1,2.177.991,1.358,1.358,0,0,0,1.834-2,7.757,7.757,0,0,0-4.01-1.737V47.932a1.358,1.358,0,0,0-2.716,0v1.74q-.4.082-.821.207a6.073,6.073,0,0,0-4.158,4.766A5.327,5.327,0,0,0,94.06,59.9,14.855,14.855,0,0,0,97.3,61.738v9.5a6.422,6.422,0,0,1-3.625-1.3,1.358,1.358,0,1,0-1.487,2.273Zm3.546-14.458a2.645,2.645,0,0,1-.744-2.61,3.39,3.39,0,0,1,2.272-2.669l.037-.01v6.263A9.794,9.794,0,0,1,95.736,57.759Zm4.85,5.257a3.748,3.748,0,0,1,2.655,4.345,4.671,4.671,0,0,1-3.223,3.706V62.812Z" transform="translate(-89.323 -46.574)"/></g></g></g></svg>