<svg xmlns="http://www.w3.org/2000/svg" width="90" height="90" viewBox="0 0 90 90"><defs><style>.a{fill:#90a4ae;}.b{fill:#7d8f97;}.c{fill:#cfd8dc;}.d{fill:#b4bcc0;}.e{fill:#2196f3;}.f{fill:#fff;}.g{fill:#1d83d4;}.h{fill:#dedede;}</style></defs><path class="a" d="M2.813,5.625H87.188a2.813,2.813,0,0,0,0-5.625H2.813a2.813,2.813,0,0,0,0,5.625Z"/><path class="a" d="M2.813,8.625H87.188a2.813,2.813,0,0,0,0-5.625H2.813a2.813,2.813,0,0,0,0,5.625Z" transform="translate(0 8.25)"/><path class="a" d="M2.813,25.125H87.188a2.813,2.813,0,0,0,0-5.625H2.813a2.813,2.813,0,0,0,0,5.625Z" transform="translate(0 53.625)"/><path class="a" d="M2.813,28.125H87.188a2.813,2.813,0,0,0,0-5.625H2.813a2.813,2.813,0,0,0,0,5.625Z" transform="translate(0 61.875)"/><path class="b" d="M45,0H2.813a2.813,2.813,0,0,0,0,5.625H45Z"/><path class="b" d="M45,3H2.813a2.813,2.813,0,0,0,0,5.625H45Z" transform="translate(0 8.25)"/><path class="b" d="M45,19.5H2.813a2.813,2.813,0,0,0,0,5.625H45Z" transform="translate(0 53.625)"/><path class="b" d="M45,22.5H2.813a2.813,2.813,0,0,0,0,5.625H45Z" transform="translate(0 61.875)"/><path class="c" d="M2.813,12.125H19.688a2.813,2.813,0,0,0,0-5.625H2.813a2.813,2.813,0,0,0,0,5.625Z" transform="translate(0 17.875)"/><path class="c" d="M2.813,15.125H19.688a2.813,2.813,0,0,0,0-5.625H2.813a2.813,2.813,0,0,0,0,5.625Z" transform="translate(0 26.125)"/><path class="c" d="M2.813,18.625H19.688a2.813,2.813,0,0,0,0-5.625H2.813a2.813,2.813,0,0,0,0,5.625Z" transform="translate(0 35.75)"/><path class="c" d="M2.813,21.625H19.688a2.813,2.813,0,0,0,0-5.625H2.813a2.813,2.813,0,0,0,0,5.625Z" transform="translate(0 44)"/><path class="d" d="M11.25,6.5H2.813a2.813,2.813,0,0,0,0,5.625H11.25Z" transform="translate(0 17.875)"/><path class="d" d="M11.25,9.5H2.813a2.813,2.813,0,0,0,0,5.625H11.25Z" transform="translate(0 26.125)"/><path class="d" d="M11.25,13H2.813a2.813,2.813,0,0,0,0,5.625H11.25Z" transform="translate(0 35.75)"/><path class="d" d="M11.25,16H2.813a2.813,2.813,0,0,0,0,5.625H11.25Z" transform="translate(0 44)"/><path class="e" d="M8,44.438V12.562A6.57,6.57,0,0,1,14.563,6H61.438A6.57,6.57,0,0,1,68,12.562V44.438A6.57,6.57,0,0,1,61.438,51H14.563A6.57,6.57,0,0,1,8,44.438Z" transform="translate(22 16.5)"/><path class="f" d="M22.625,31.5H19.813A2.814,2.814,0,0,1,17,28.687V11.813A2.814,2.814,0,0,1,19.813,9h2.813a11.25,11.25,0,1,1,0,22.5Zm0-16.875v11.25a5.625,5.625,0,1,0,0-11.25Z" transform="translate(46.75 24.75)"/><path class="f" d="M23.187,31.5a2.814,2.814,0,0,1-2.812-2.812V16.5a1.875,1.875,0,0,0-3.75,0V28.687a2.813,2.813,0,0,1-5.625,0V16.5a7.5,7.5,0,1,1,15,0V28.687A2.814,2.814,0,0,1,23.187,31.5Z" transform="translate(30.25 24.75)"/><path class="f" d="M23.187,17.625H13.813a2.813,2.813,0,0,1,0-5.625h9.375a2.812,2.812,0,0,1,0,5.625Z" transform="translate(30.25 33)"/><path class="g" d="M53,12H47.375v5.625A5.632,5.632,0,0,0,53,12Zm15,0H58.625a11.264,11.264,0,0,1-11.25,11.25H44.563a2.814,2.814,0,0,1-2.812-2.812V12h-7.5v8.438a2.813,2.813,0,0,1-5.625,0V17.625h-3.75v2.813a2.813,2.813,0,0,1-5.625,0V12H8V27.937A6.57,6.57,0,0,0,14.563,34.5H61.438A6.57,6.57,0,0,0,68,27.937Z" transform="translate(22 33)"/><path class="h" d="M33.875,12H28.25a5.632,5.632,0,0,1-5.625,5.625V12H17v8.438a2.814,2.814,0,0,0,2.813,2.813h2.813A11.264,11.264,0,0,0,33.875,12Z" transform="translate(46.75 33)"/><path class="h" d="M26,14.813a2.814,2.814,0,0,1-2.812,2.813H20.375v2.813a2.812,2.812,0,1,0,5.625,0ZM16.625,12H11v8.438a2.813,2.813,0,0,0,5.625,0V17.625H13.813a2.813,2.813,0,0,1,0-5.625ZM26,12H23.187A2.814,2.814,0,0,1,26,14.813Z" transform="translate(30.25 33)"/><path class="h" d="M23.187,12H13.813a2.813,2.813,0,0,0,0,5.625h9.375a2.813,2.813,0,0,0,0-5.625Z" transform="translate(30.25 33)"/></svg>