<svg xmlns="http://www.w3.org/2000/svg" width="90" height="90" viewBox="0 0 90 90"><defs><style>.a{fill:#ffe07d;}.b{fill:#9bb9c1;}.c{fill:#86a0af;}.d{fill:#e278b1;}.e{fill:#dd5ca2;}.f{fill:#80b4fb;}.g{fill:#61a2f9;}.h{fill:#4a80aa;}.i{fill:#407093;}.j{fill:#e4f6ff;}</style></defs><g transform="translate(0 6.36)"><g transform="translate(26.664 51.758)"><path class="a" d="M157.123,330.624l-5.433,5.433,5.691,8.278,3.924-3.924a1.811,1.811,0,0,0,.28-2.2Z" transform="translate(-151.69 -330.624)"/></g><g transform="translate(21.232 56.156)"><path class="b" d="M127.252,355.643l-6.468,6.467,11.641,16.3,6.209-6.209Z" transform="translate(-120.784 -355.643)"/></g><g transform="translate(21.232 56.156)"><path class="c" d="M123.156,365.43l3.056-3.056a10.972,10.972,0,0,1,2.559-1.9l1.314-.708-2.833-4.121-6.468,6.468Z" transform="translate(-120.785 -355.642)"/></g><g transform="translate(22.248)"><path class="d" d="M130.724,36.715,127.1,40.336a1.829,1.829,0,0,0,0,2.587l38.8,38.8a1.829,1.829,0,0,0,2.587,0l3.622-3.622a1.829,1.829,0,0,0,0-2.587l-38.8-38.8A1.829,1.829,0,0,0,130.724,36.715Z" transform="translate(-126.566 -36.179)"/></g><g transform="translate(23.745 0)"><path class="e" d="M137.742,36.715l-2.661,2.661a1.829,1.829,0,0,1,2.587,0l38.8,38.8a1.829,1.829,0,0,1,0,2.587l2.661-2.661a1.829,1.829,0,0,0,0-2.587l-38.8-38.8A1.829,1.829,0,0,0,137.742,36.715Z" transform="translate(-135.081 -36.179)"/></g><g transform="translate(9.849 8.038)"><path class="f" d="M69.133,92.485l-13.1,24.345,15.522,15.522,24.345-13.1a10.976,10.976,0,0,1,5.6-1.3l4.983.179L70.257,81.906l.179,4.983A10.976,10.976,0,0,1,69.133,92.485Z" transform="translate(-56.029 -81.906)"/></g><g transform="translate(30.048 19.151)"><path class="g" d="M201.184,170.234l-4.983-.179a10.94,10.94,0,0,0-5.6,1.3l-19.669,10.586c6.9-10.193,8-27.022,5.142-36.816Z" transform="translate(-170.937 -145.129)"/></g><g transform="translate(2.846 42.962)"><path class="d" d="M23.191,280.586l-6.468,6.467a1.829,1.829,0,0,0,0,2.587l12.935,12.935a1.829,1.829,0,0,0,2.587,0l6.468-6.468Z" transform="translate(-16.188 -280.586)"/></g><g transform="translate(7.431 42.959)"><path class="e" d="M0,0H3.41V21.951H0Z" transform="translate(0 2.411) rotate(-45)"/></g><g transform="translate(0 52.016)"><path class="h" d="M3.382,332.095.536,334.941a1.829,1.829,0,0,0,0,2.587l10.348,10.348a1.829,1.829,0,0,0,2.587,0l2.846-2.846Z" transform="translate(0 -332.095)"/></g><g transform="translate(40.634 10.162)"><path class="i" d="M246.685,111.525l1.6-3.05a3.659,3.659,0,0,0-.654-4.285L238.5,95.06a3.658,3.658,0,0,0-4.284-.654l-3.05,1.6Z" transform="translate(-231.163 -93.988)"/></g><g transform="translate(32.293 72.132)"><path class="d" d="M194.9,450.992l-6.726,6.726a1.1,1.1,0,0,1-1.552,0l-2.587-2.587a1.1,1.1,0,0,1,0-1.552l6.726-6.726a1.1,1.1,0,0,1,1.552,0l2.587,2.587A1.1,1.1,0,0,1,194.9,450.992Z" transform="translate(-183.712 -446.531)"/></g><g transform="translate(37.012 72.132)"><path class="e" d="M212.886,446.852l-2.328,2.328a1.1,1.1,0,0,1,1.552,0l2.587,2.587a1.1,1.1,0,0,1,0,1.552l2.328-2.328a1.1,1.1,0,0,0,0-1.552l-2.587-2.587A1.1,1.1,0,0,0,212.886,446.852Z" transform="translate(-210.558 -446.531)"/></g></g><g transform="translate(57.805 0)"><path class="j" d="M361.04,1.811V15.75a1.811,1.811,0,0,1-1.811,1.811H340.546a1.086,1.086,0,0,0-.648.215l-5.689,4.23a.724.724,0,0,1-1.157-.581V18.285a.724.724,0,0,0-.724-.724h-1.672a1.811,1.811,0,0,1-1.811-1.811V1.811A1.811,1.811,0,0,1,330.656,0h28.573a1.811,1.811,0,0,1,1.811,1.811Z" transform="translate(-328.845 0)"/></g><g transform="translate(62.927 25.976)"><circle class="a" cx="13.537" cy="13.537" r="13.537"/></g><g transform="translate(72.073 33.696)"><path class="g" d="M410.016,192.783v9.455a1.086,1.086,0,0,0,1.619.947l8.4-4.728a1.087,1.087,0,0,0,0-1.894l-8.4-4.728A1.087,1.087,0,0,0,410.016,192.783Z" transform="translate(-410.016 -191.695)"/></g><g transform="translate(62.3 4.496)"><path class="d" d="M376.266,28.291H355.778a1.358,1.358,0,1,1,0-2.716h20.488a1.358,1.358,0,1,1,0,2.716Z" transform="translate(-354.42 -25.575)"/></g><g transform="translate(62.3 10.349)"><path class="d" d="M368.948,61.592H355.777a1.358,1.358,0,1,1,0-2.716h13.171a1.358,1.358,0,1,1,0,2.716Z" transform="translate(-354.419 -58.876)"/></g></svg>