<svg xmlns="http://www.w3.org/2000/svg" width="90" height="75" viewBox="0 0 90 75"><defs><style>.a{fill:#b40042;}.b{fill:#ff415b;}.c{fill:#fd5;}.d{fill:#ff8859;}.e{fill:#b4d2d7;}.f{fill:#e1ebf0;}.g{fill:#ffda44;}.h{fill:#fff68e;}.i{fill:#ff9f22;}</style></defs><g transform="translate(-899 -5675.5)"><path class="a" d="M247.059,49.575V95.441H210V42.5h29.984A7.082,7.082,0,0,1,247.059,49.575Z" transform="translate(726.059 5633)"/><path class="b" d="M37.059,42.5V95.441H7.075A7.082,7.082,0,0,1,0,88.366V49.575A7.082,7.082,0,0,1,7.075,42.5Z" transform="translate(899 5633)"/><path class="c" d="M71.885,132.5h-7A4.886,4.886,0,0,0,60,137.38V143.5a4.886,4.886,0,0,0,4.88,4.88h7a4.886,4.886,0,0,0,4.88-4.88V137.38A4.886,4.886,0,0,0,71.885,132.5Z" transform="translate(849.588 5558.882)"/><path class="d" d="M60,252.5H70.588v5.294H60Z" transform="translate(849.588 5460.059)"/><path class="d" d="M150,252.5h10.588v5.294H150Z" transform="translate(775.471 5460.059)"/><path class="b" d="M240,252.5h10.588v5.294H240Z" transform="translate(701.353 5460.059)"/><path class="e" d="M408.9,170.188v5.546H403.6v-5.546a8.834,8.834,0,0,0-8.823-8.824l-1.119-2.395,1.119-2.9A14.134,14.134,0,0,1,408.9,170.188Z" transform="translate(574.81 5539.472)"/><path class="f" d="M334.118,156.07v5.294a8.834,8.834,0,0,0-8.824,8.824v5.546H320v-5.546A14.134,14.134,0,0,1,334.118,156.07Z" transform="translate(635.471 5539.472)"/><path class="g" d="M419.412,252.5v18.529A19.435,19.435,0,0,1,400,290.441V252.5Z" transform="translate(569.588 5460.059)"/><path class="h" d="M309.412,252.5v37.941A19.435,19.435,0,0,1,290,271.029V252.5Z" transform="translate(660.176 5460.059)"/><path class="i" d="M403.607,320.285l-8.829,7.946-1.119-3.63,1.119-3.492,5.289-4.759Z" transform="translate(574.81 5407.477)"/><path class="g" d="M358.321,333.907v7.122l-1.86,1.675-7.071-7.069,3.745-3.745,3.517,3.519Z" transform="translate(611.267 5394.679)"/></g></svg>