<svg xmlns="http://www.w3.org/2000/svg" width="59.734" height="90" viewBox="0 0 59.734 90"><defs><style>.a{fill:#ffdfba;}.b{fill:#fe4f60;}.c{fill:#42434d;}.d{fill:#ffebd2;}.e{fill:#fff;}.f{fill:#fff3e4;}.g{fill:#ffd6a6;}.h{fill:#ff6d7a;}.i{fill:#e84857;}.j{fill:#4d4e59;}</style></defs><g transform="translate(-78.028)"><path class="a" d="M137.762,80.835v7.614A1.551,1.551,0,0,1,136.211,90H79.58a1.551,1.551,0,0,1-1.552-1.552V80.835A14.464,14.464,0,0,1,92.494,66.372a8.03,8.03,0,0,0,6.741-3.658,9.116,9.116,0,0,0,1.29-5.684l.029-.072a19.2,19.2,0,0,1-11.86-17.746v-.607a4.784,4.784,0,0,1-4.849-4.759v-8.06c-.062-2.806.066-12.7,7.215-19.594,8.312-8.012,21.485-7.356,31.027-3.07a.389.389,0,0,1-.014.714l-2.488,1.024a.388.388,0,0,0,.107.745l1.208.13a19.576,19.576,0,0,1,14.491,8.989.416.416,0,0,1-.05.479,11.734,11.734,0,0,0-3.2,8.06V33.846a4.76,4.76,0,0,1-4.759,4.759H127.1v.607a19.2,19.2,0,0,1-11.86,17.746l.029.072a9.112,9.112,0,0,0,1.29,5.684,8.03,8.03,0,0,0,6.741,3.658,14.464,14.464,0,0,1,14.466,14.462Z" transform="translate(0 0)"/><path class="b" d="M137.762,341.486V349.1a1.552,1.552,0,0,1-1.552,1.552H79.58a1.552,1.552,0,0,1-1.552-1.552v-7.614a14.465,14.465,0,0,1,14.465-14.462,8.03,8.03,0,0,0,6.742-3.658,13.313,13.313,0,0,0,17.319,0,8.03,8.03,0,0,0,6.742,3.658,14.465,14.465,0,0,1,14.465,14.462Z" transform="translate(0 -260.651)"/><path class="c" d="M159.541,14.725a.411.411,0,0,1-.05.477,11.741,11.741,0,0,0-3.2,8.061V33.847a4.769,4.769,0,0,1-5.043,4.759V26.626a9.309,9.309,0,0,0-9.309-9.309H122.153a9.309,9.309,0,0,0-9.309,9.309v11.98A4.784,4.784,0,0,1,108,33.847v-8.06c-.062-2.806.066-12.7,7.215-19.594,8.312-8.012,21.486-7.356,31.026-3.07a.389.389,0,0,1-.013.713L143.735,4.86a.388.388,0,0,0,.106.744l1.209.13a19.567,19.567,0,0,1,14.491,8.99Z" transform="translate(-24.149 0)"/><path class="d" d="M171.429,111.182a19.2,19.2,0,0,1-19.2,19.2c-9.987,0-19.2-7.764-19.2-19.807V98.6a9.309,9.309,0,0,1,9.309-9.309h19.782a9.309,9.309,0,0,1,9.309,9.309Z" transform="translate(-44.333 -71.97)"/><path class="e" d="M287.234,434.159H282.58a1.552,1.552,0,0,1,0-3.1h4.655a1.552,1.552,0,0,1,0,3.1Z" transform="translate(-163.63 -347.456)"/><path class="f" d="M147.881,136.2a3.066,3.066,0,0,1-2.788,5.431,19.2,19.2,0,0,1-12.065-17.83V111.212a9.268,9.268,0,0,1,1.633-5.269,2.293,2.293,0,0,1,4.185,1.39V119.92A19.06,19.06,0,0,0,147.881,136.2Z" transform="translate(-44.333 -84.587)"/><path class="g" d="M208.076,296.942a19.253,19.253,0,0,1-15.178,0,12.02,12.02,0,0,0,.219-3.185l.029-.072a19.24,19.24,0,0,0,14.681,0l.029.072A12.015,12.015,0,0,0,208.076,296.942Z" transform="translate(-92.592 -236.728)"/><path class="h" d="M100.309,331.709a7.889,7.889,0,0,1-2.311.357,14.5,14.5,0,0,0-14.539,14.413v1.458a2.715,2.715,0,0,1-2.715,2.715H79.58a1.552,1.552,0,0,1-1.552-1.552v-7.614a14.465,14.465,0,0,1,14.465-14.462,8.03,8.03,0,0,0,6.742-3.658,13.421,13.421,0,0,0,1.845,1.323,3.874,3.874,0,0,1-.772,7.02Z" transform="translate(0 -260.651)"/><path class="i" d="M260.034,331.709a7.889,7.889,0,0,0,2.311.357,14.5,14.5,0,0,1,14.539,14.413v1.458a2.715,2.715,0,0,0,2.715,2.715h1.164a1.552,1.552,0,0,0,1.552-1.552v-7.614a14.465,14.465,0,0,0-14.465-14.462,8.03,8.03,0,0,1-6.742-3.658,13.422,13.422,0,0,1-1.845,1.323,3.874,3.874,0,0,0,.772,7.02Z" transform="translate(-144.552 -260.651)"/><path class="j" d="M146.223,3.835c-2.28.938-2.605,1.145-3.4,1.023-12.737-1.974-23.912,3.3-27.707,15.668v0a9.263,9.263,0,0,0-2.277,6.1V33.9A2.425,2.425,0,1,1,108,33.846v-8.06c-.062-2.806.066-12.7,7.215-19.594,8.312-8.012,21.485-7.356,31.027-3.07a.389.389,0,0,1-.014.714Z" transform="translate(-24.149 0)"/></g></svg>