<svg xmlns="http://www.w3.org/2000/svg" xmlns:xlink="http://www.w3.org/1999/xlink" width="19" height="12" viewBox="0 0 19 12"><defs><style>.a{fill:#fff;stroke:#707070;}.b{clip-path:url(#a);}.c{fill:#e2574c;}.d{fill:#f4b459;}</style><clipPath id="a"><rect class="a" width="19" height="12" transform="translate(0.158 0.424)"/></clipPath></defs><g class="b" transform="translate(-0.158 -0.424)"><g transform="translate(0.575 -0.188)"><path class="c" d="M11.99,12.9a5.995,5.995,0,1,1-5.995-6A6,6,0,0,1,11.99,12.9Z" transform="translate(0 -6.902)"/><path class="d" d="M19.8,6.9a5.962,5.962,0,0,0-3.582,1.2h0a5.138,5.138,0,0,1,.581.543l-1.247.02a6.166,6.166,0,0,0-.541.635h2.2a5.572,5.572,0,0,1,.462.6H14.615a5.975,5.975,0,0,0-.306.6h3.716a5.108,5.108,0,0,1,.258.579H14.089a5.775,5.775,0,0,0-.167.634h4.536c.044.208.079.4.1.595H13.832c-.02.2-.03.4-.03.6h4.792a5.267,5.267,0,0,1-.037.6H13.832q.031.3.09.6h4.529c-.047.194-.1.39-.169.592H14.075a5.821,5.821,0,0,0,.225.6h3.724a5.462,5.462,0,0,1-.349.6H14.6a5.834,5.834,0,0,0,.4.6l2.209.033a5.837,5.837,0,0,1-.65.56c.012.01-.352,0-1.069-.013A6,6,0,1,0,19.8,6.9Z" transform="translate(-6.605 -6.902)"/></g></g></svg>