<svg xmlns="http://www.w3.org/2000/svg" width="90" height="90" viewBox="0 0 90 90"><defs><style>.a{fill:#00c8c8;}.b{fill:#ffe14d;}.c{fill:#ffa64d;}.d{fill:#ff4d4d;}.e{fill:#cc2929;}.f{fill:#d7eaeb;}.g{fill:#ed8600;}.h{fill:#fb3;}</style></defs><g transform="translate(10.191 32.233)"><path class="a" d="M122.446,230.95H60.613a2.637,2.637,0,0,1,0-5.273h61.833a10.065,10.065,0,0,0,0-20.131H72.24a11.087,11.087,0,1,1,0-22.174h49.587a2.637,2.637,0,1,1,0,5.273H72.235a5.814,5.814,0,1,0,0,11.628h50.206a15.339,15.339,0,1,1,0,30.678Z" transform="translate(-57.976 -183.371)"/></g><ellipse class="b" cx="12.828" cy="12.825" rx="12.828" ry="12.825" transform="translate(0 64.35)"/><circle class="c" cx="8.217" cy="8.217" r="8.217" transform="translate(49.925 68.958)"/><path class="d" d="M346.338,0a15.979,15.979,0,0,0-15.963,15.959c0,5.9,6.333,13.948,11.646,19.665a5.893,5.893,0,0,0,8.635,0c5.313-5.717,11.646-13.769,11.646-19.665A15.979,15.979,0,0,0,346.338,0Z" transform="translate(-272.301)"/><circle class="c" cx="8.217" cy="8.217" r="8.217" transform="translate(38.647 43.554)"/><path class="e" d="M421.188,0V37.507a5.913,5.913,0,0,0,4.317-1.882c5.313-5.717,11.646-13.769,11.646-19.665A15.979,15.979,0,0,0,421.188,0Z" transform="translate(-347.151)"/><g transform="translate(71.398 13.48)"><path class="f" d="M408.814,81.958a2.637,2.637,0,1,0-2.637-2.637A2.666,2.666,0,0,0,408.814,81.958Z" transform="translate(-406.175 -76.685)"/></g><path class="g" d="M274.822,255.99a8.226,8.226,0,0,0-8.217-8.217v16.434A8.226,8.226,0,0,0,274.822,255.99Z" transform="translate(-219.741 -204.219)"/><path class="g" d="M338.98,400.513a8.226,8.226,0,0,0-8.217-8.217V408.73A8.226,8.226,0,0,0,338.98,400.513Z" transform="translate(-272.621 -323.338)"/><path class="h" d="M85.8,378.907a12.841,12.841,0,0,0-12.828-12.825v25.65A12.841,12.841,0,0,0,85.8,378.907Z" transform="translate(-60.147 -301.732)"/></svg>