<svg xmlns="http://www.w3.org/2000/svg" width="90" height="73.114" viewBox="0 0 90 73.114"><defs><style>.a{fill:#d4f2f6;}.b{fill:#a6e7f0;}.c{fill:#fee45a;}.d{fill:#fed402;}.e{fill:#6bd9e7;}</style></defs><g transform="translate(0 -48.03)"><g transform="translate(0 48.03)"><path class="a" d="M15.675,64.886H1.181A1.181,1.181,0,0,1,0,63.7V49.211A1.181,1.181,0,0,1,1.181,48.03H15.675a1.181,1.181,0,0,1,1.181,1.181V63.7A1.181,1.181,0,0,1,15.675,64.886Z" transform="translate(0 -48.03)"/><path class="a" d="M15.675,224.91H1.181A1.181,1.181,0,0,1,0,223.729V209.235a1.181,1.181,0,0,1,1.181-1.181H15.675a1.181,1.181,0,0,1,1.181,1.181v14.493A1.181,1.181,0,0,1,15.675,224.91Z" transform="translate(0 -179.925)"/><path class="a" d="M15.675,384.934H1.181A1.182,1.182,0,0,1,0,383.753V369.259a1.181,1.181,0,0,1,1.181-1.181H15.675a1.181,1.181,0,0,1,1.181,1.181v14.493A1.181,1.181,0,0,1,15.675,384.934Z" transform="translate(0 -311.82)"/></g><path class="b" d="M73.389,49.215V63.709a1.181,1.181,0,0,1-1.181,1.181H68.591a1.181,1.181,0,0,0,1.181-1.181V49.215a1.18,1.18,0,0,0-1.181-1.181h3.617A1.18,1.18,0,0,1,73.389,49.215Z" transform="translate(-56.534 -0.003)"/><path class="b" d="M73.389,209.235v14.494a1.18,1.18,0,0,1-1.181,1.181H68.591a1.18,1.18,0,0,0,1.181-1.181V209.235a1.18,1.18,0,0,0-1.181-1.181h3.617A1.18,1.18,0,0,1,73.389,209.235Z" transform="translate(-56.534 -131.895)"/><path class="b" d="M73.389,369.257v14.494a1.18,1.18,0,0,1-1.181,1.181H68.591a1.18,1.18,0,0,0,1.181-1.181V369.257a1.181,1.181,0,0,0-1.181-1.181h3.617A1.181,1.181,0,0,1,73.389,369.257Z" transform="translate(-56.534 -263.788)"/><g transform="translate(23.986 48.03)"><path class="c" d="M146.422,48.761l1.7,3.449a1.311,1.311,0,0,0,.987.717l3.806.553a1.311,1.311,0,0,1,.727,2.236L150.89,58.4a1.311,1.311,0,0,0-.377,1.16l.65,3.791a1.311,1.311,0,0,1-1.9,1.382l-3.4-1.79a1.311,1.311,0,0,0-1.22,0l-3.4,1.79a1.311,1.311,0,0,1-1.9-1.382l.65-3.791a1.31,1.31,0,0,0-.377-1.16l-2.754-2.685a1.311,1.311,0,0,1,.727-2.236l3.806-.553a1.311,1.311,0,0,0,.987-.717l1.7-3.449A1.311,1.311,0,0,1,146.422,48.761Z" transform="translate(-136.453 -48.031)"/><path class="c" d="M284.167,48.761l1.7,3.449a1.311,1.311,0,0,0,.987.717l3.806.553a1.311,1.311,0,0,1,.727,2.236L288.635,58.4a1.311,1.311,0,0,0-.377,1.16l.65,3.791a1.311,1.311,0,0,1-1.9,1.382l-3.4-1.79a1.311,1.311,0,0,0-1.22,0l-3.4,1.79a1.311,1.311,0,0,1-1.9-1.382l.65-3.791a1.31,1.31,0,0,0-.377-1.16L274.6,55.716a1.311,1.311,0,0,1,.727-2.236l3.806-.553a1.311,1.311,0,0,0,.987-.717l1.7-3.449A1.311,1.311,0,0,1,284.167,48.761Z" transform="translate(-249.985 -48.031)"/><path class="c" d="M421.912,48.761l1.7,3.449a1.311,1.311,0,0,0,.987.717l3.806.553a1.311,1.311,0,0,1,.727,2.236L426.38,58.4A1.311,1.311,0,0,0,426,59.56l.65,3.791a1.311,1.311,0,0,1-1.9,1.382l-3.4-1.79a1.311,1.311,0,0,0-1.22,0l-3.4,1.79a1.311,1.311,0,0,1-1.9-1.382l.65-3.791a1.31,1.31,0,0,0-.377-1.16l-2.754-2.685a1.311,1.311,0,0,1,.727-2.236l3.806-.553a1.311,1.311,0,0,0,.987-.717l1.7-3.449A1.311,1.311,0,0,1,421.912,48.761Z" transform="translate(-363.517 -48.031)"/></g><g transform="translate(23.986 76.159)"><path class="c" d="M146.422,208.785l1.7,3.449a1.311,1.311,0,0,0,.987.717l3.806.553a1.311,1.311,0,0,1,.727,2.236l-2.754,2.685a1.311,1.311,0,0,0-.377,1.16l.65,3.791a1.311,1.311,0,0,1-1.9,1.382l-3.4-1.79a1.311,1.311,0,0,0-1.22,0l-3.4,1.79a1.311,1.311,0,0,1-1.9-1.382l.65-3.791a1.31,1.31,0,0,0-.377-1.16l-2.754-2.685a1.311,1.311,0,0,1,.727-2.236l3.806-.553a1.311,1.311,0,0,0,.987-.717l1.7-3.449A1.31,1.31,0,0,1,146.422,208.785Z" transform="translate(-136.453 -208.054)"/><path class="c" d="M284.167,208.785l1.7,3.449a1.311,1.311,0,0,0,.987.717l3.806.553a1.311,1.311,0,0,1,.727,2.236l-2.754,2.685a1.311,1.311,0,0,0-.377,1.16l.65,3.791a1.311,1.311,0,0,1-1.9,1.382l-3.4-1.79a1.311,1.311,0,0,0-1.22,0l-3.4,1.79a1.311,1.311,0,0,1-1.9-1.382l.65-3.791a1.31,1.31,0,0,0-.377-1.16l-2.754-2.685a1.311,1.311,0,0,1,.727-2.236l3.806-.553a1.311,1.311,0,0,0,.987-.717l1.7-3.449A1.31,1.31,0,0,1,284.167,208.785Z" transform="translate(-249.985 -208.054)"/></g><g transform="translate(23.986 104.288)"><path class="c" d="M146.422,368.808l1.7,3.449a1.311,1.311,0,0,0,.987.717l3.806.553a1.311,1.311,0,0,1,.727,2.236l-2.754,2.685a1.311,1.311,0,0,0-.377,1.16l.65,3.791a1.311,1.311,0,0,1-1.9,1.382l-3.4-1.79a1.311,1.311,0,0,0-1.22,0l-3.4,1.79a1.311,1.311,0,0,1-1.9-1.382l.65-3.791a1.31,1.31,0,0,0-.377-1.16l-2.754-2.685a1.311,1.311,0,0,1,.727-2.236l3.806-.553a1.311,1.311,0,0,0,.987-.717l1.7-3.449A1.311,1.311,0,0,1,146.422,368.808Z" transform="translate(-136.453 -368.078)"/></g><g transform="translate(33.665 53.012)"><path class="d" d="M196.272,81.757a1.313,1.313,0,0,0-.376,1.161l.649,3.791a1.31,1.31,0,0,1-1.9,1.382l-2.849-1.5a1.309,1.309,0,0,0,.4-1.192l-.66-3.849a1.334,1.334,0,0,1,.382-1.179l2.8-2.725a1.313,1.313,0,0,0,.36-1.279l3.226.468a1.31,1.31,0,0,1,.727,2.235Z" transform="translate(-191.514 -76.37)"/><path class="d" d="M335.774,82.02a1.309,1.309,0,0,0-.376,1.161l.649,3.791a1.31,1.31,0,0,1-1.9,1.382l-2.621-1.378a1.309,1.309,0,0,0,.544-1.311l-.66-3.849a1.335,1.335,0,0,1,.383-1.179l2.8-2.725a1.3,1.3,0,0,0,.373-1.223l2.839.412a1.31,1.31,0,0,1,.727,2.235Z" transform="translate(-306.804 -76.633)"/><path class="d" d="M475.093,82.283a1.309,1.309,0,0,0-.376,1.161l.649,3.791a1.31,1.31,0,0,1-1.9,1.382l-2.42-1.271a1.323,1.323,0,0,0,.72-1.418l-.66-3.849a1.33,1.33,0,0,1,.383-1.179l2.8-2.725a1.31,1.31,0,0,0,.385-1.166l2.451.356a1.31,1.31,0,0,1,.727,2.235Z" transform="translate(-421.91 -76.896)"/></g><g transform="translate(33.665 81.128)"><path class="d" d="M196.272,241.721a1.309,1.309,0,0,0-.376,1.159l.649,3.791a1.31,1.31,0,0,1-1.9,1.382l-2.706-1.422a1.307,1.307,0,0,0,.255-1.036l-.66-3.849a1.335,1.335,0,0,1,.382-1.179l2.8-2.725a1.322,1.322,0,0,0,.273-1.523l3.313.481a1.311,1.311,0,0,1,.727,2.235Z" transform="translate(-191.514 -236.319)"/><path class="d" d="M335.774,241.992a1.3,1.3,0,0,0-.376,1.159l.649,3.791a1.31,1.31,0,0,1-1.9,1.382l-2.451-1.286a1.306,1.306,0,0,0,.374-1.172l-.66-3.849a1.336,1.336,0,0,1,.383-1.179l2.8-2.725a1.315,1.315,0,0,0,.3-1.465l2.914.423a1.311,1.311,0,0,1,.727,2.235Z" transform="translate(-306.804 -236.59)"/></g><g transform="translate(33.665 109.267)"><path class="d" d="M196.272,401.792a1.312,1.312,0,0,0-.376,1.161l.649,3.789a1.31,1.31,0,0,1-1.9,1.382l-2.812-1.478a1.308,1.308,0,0,0,.362-1.158l-.66-3.849a1.334,1.334,0,0,1,.382-1.179l2.8-2.725a1.316,1.316,0,0,0,.345-1.335l3.241.47a1.312,1.312,0,0,1,.727,2.237Z" transform="translate(-191.514 -396.401)"/></g><g transform="translate(3.614 52.404)"><path class="e" d="M24.625,81.02a1.356,1.356,0,0,1-1.01-.452l-2.707-3.023a1.356,1.356,0,0,1,2.021-1.81l1.625,1.815,3.21-4.116A1.356,1.356,0,1,1,29.9,75.1l-4.207,5.4a1.356,1.356,0,0,1-1.024.522h-.046Z" transform="translate(-20.561 -72.911)"/></g></g></svg>