<svg xmlns="http://www.w3.org/2000/svg" width="90" height="90" viewBox="0 0 90 90"><defs><style>.a{fill:#00d8e0;}.b{fill:#00acb3;}.c{fill:#fef4f5;}.d{fill:#54e360;}.e{fill:#00ab5e;}.f{fill:#d5eded;}</style></defs><path class="a" d="M62.065,14.613,53.179,8.265A9.712,9.712,0,0,0,43.588,0H9.7A9.708,9.708,0,0,0,0,9.7V43.588a9.708,9.708,0,0,0,9.7,9.7H39.352a2.637,2.637,0,0,0,1.865-4.5l7.567-7.568a2.636,2.636,0,0,0,4.5-1.864V25.175L62.065,18.9a2.636,2.636,0,0,0,0-4.291Zm0,0"/><path class="b" d="M187.871,14.613l-8.887-6.347A9.712,9.712,0,0,0,169.394,0H152.637V53.285h12.521a2.637,2.637,0,0,0,1.865-4.5l7.567-7.568a2.636,2.636,0,0,0,4.5-1.864V25.175l8.781-6.272a2.636,2.636,0,0,0,0-4.291Zm0,0" transform="translate(-125.806)"/><path class="c" d="M114.706,110.2a11.181,11.181,0,0,1-5.768-1.594,14.183,14.183,0,0,0,3.718-8.177h2.05a1.487,1.487,0,0,0,0-2.974h-6.614v-3.61a1.487,1.487,0,1,0-2.974,0v3.61H98.5a1.487,1.487,0,0,0,0,2.974h2.05a14.178,14.178,0,0,0,3.717,8.177A11.19,11.19,0,0,1,98.5,110.2a1.487,1.487,0,1,0,0,2.974,14.15,14.15,0,0,0,8.1-2.541,14.145,14.145,0,0,0,8.1,2.541,1.487,1.487,0,0,0,0-2.974Zm-5.046-9.771a11.222,11.222,0,0,1-3.056,6.318,11.226,11.226,0,0,1-3.055-6.318Zm0,0" transform="translate(-79.962 -76.121)"/><path class="d" d="M206.109,208.867H172.218a9.708,9.708,0,0,0-9.7,9.7v18.413l-8.781,6.272a2.636,2.636,0,0,0,0,4.291l8.887,6.347a9.712,9.712,0,0,0,9.591,8.265h33.891a9.708,9.708,0,0,0,9.7-9.7V218.564A9.708,9.708,0,0,0,206.109,208.867Zm0,0" transform="translate(-125.806 -172.152)"/><path class="e" d="M377.379,208.867H360.434v53.285h16.946a9.708,9.708,0,0,0,9.7-9.7V218.564A9.708,9.708,0,0,0,377.379,208.867Zm0,0" transform="translate(-297.076 -172.152)"/><path class="c" d="M315.684,320.514a1.646,1.646,0,0,1,.057-.283l5.451-17.765a2.294,2.294,0,0,1,2.344-1.244c1.074,0,2.119.4,2.373,1.244l5.451,17.765a1.255,1.255,0,0,1,.057.283c0,.875-1.327,1.524-2.316,1.524-.621,0-1.1-.2-1.243-.734l-1.073-3.757h-6.468l-1.073,3.757c-.141.537-.621.734-1.242.734C317.012,322.038,315.684,321.417,315.684,320.514Zm10.31-5.848L323.535,306l-2.457,8.67Zm0,0" transform="translate(-260.192 -248.273)"/><g transform="translate(26.831 16.248)"><path class="f" d="M160.55,100.491a1.487,1.487,0,0,0,0-2.974h-6.614v-3.61a1.486,1.486,0,0,0-1.3-1.474v8.058H155.5a11.219,11.219,0,0,1-2.867,6.115v4.215a14.141,14.141,0,0,0,7.913,2.415,1.487,1.487,0,0,0,0-2.974,11.187,11.187,0,0,1-5.768-1.594,14.183,14.183,0,0,0,3.718-8.177Zm0,0" transform="translate(-152.637 -92.434)"/><path class="f" d="M368.243,320.234l-5.451-17.765a2.3,2.3,0,0,0-2.359-1.243v4.823l2.443,8.62h-2.443v2.881h3.234l1.073,3.757c.141.537.621.734,1.243.734.989,0,2.316-.649,2.316-1.524A1.216,1.216,0,0,0,368.243,320.234Zm0,0" transform="translate(-323.907 -264.525)"/></g></svg>