<svg xmlns="http://www.w3.org/2000/svg" width="26.253" height="7.959" viewBox="0 0 26.253 7.959"><defs><style>.a{fill:#3c58bf;}.b{fill:#293688;}.c{fill:#ffbc00;}.d{fill:#f7981d;}.e{fill:#ed7c00;}.f{fill:#051244;}</style></defs><g transform="translate(0 0)"><path class="a" d="M184.8,187.9l1.333-7.5h2.084l-1.292,7.5Z" transform="translate(-175.174 -180.15)"/><path class="b" d="M184.8,187.9l1.709-7.5h1.709l-1.292,7.5Z" transform="translate(-175.174 -180.15)"/><path class="a" d="M254.376,175.933a5.286,5.286,0,0,0-1.917-.333c-2.084,0-3.584,1.042-3.584,2.542,0,1.125,1.042,1.708,1.875,2.083s1.083.625,1.083.958c0,.5-.667.75-1.25.75a4.529,4.529,0,0,1-2-.417l-.292-.125L248,183.1a6.756,6.756,0,0,0,2.375.417c2.209,0,3.667-1.042,3.667-2.625,0-.875-.542-1.542-1.792-2.084-.75-.375-1.208-.583-1.208-.958,0-.333.375-.667,1.208-.667a3.821,3.821,0,0,1,1.583.292l.208.083.333-1.625Z" transform="translate(-235.082 -175.6)"/><path class="b" d="M254.376,175.933a5.286,5.286,0,0,0-1.917-.333c-2.084,0-3.209,1.042-3.209,2.542a2.178,2.178,0,0,0,1.5,2.083c.833.375,1.083.625,1.083.958,0,.5-.667.75-1.25.75a4.529,4.529,0,0,1-2-.417l-.292-.125L248,183.1a6.756,6.756,0,0,0,2.375.417c2.209,0,3.667-1.042,3.667-2.625,0-.875-.542-1.542-1.792-2.084-.75-.375-1.208-.583-1.208-.958,0-.333.375-.667,1.208-.667a3.821,3.821,0,0,1,1.583.292l.208.083.333-1.625Z" transform="translate(-235.082 -175.6)"/><path class="a" d="M362.609,180.4c-.5,0-.875.042-1.083.542L358.4,187.9h2.25l.417-1.25h2.667l.25,1.25h2l-1.75-7.5Zm-.958,5c.125-.375.833-2.209.833-2.209s.167-.458.292-.75l.125.708s.417,1.875.5,2.292h-1.75Z" transform="translate(-339.732 -180.15)"/><path class="b" d="M363.109,180.4c-.5,0-.875.042-1.083.542L358.4,187.9h2.25l.417-1.25h2.667l.25,1.25h2l-1.75-7.5Zm-1.458,5c.167-.417.833-2.209.833-2.209s.167-.458.292-.75l.125.708s.417,1.875.5,2.292h-1.75Z" transform="translate(-339.732 -180.15)"/><path class="a" d="M54.325,186.409l-.208-1.083a6.041,6.041,0,0,0-2.917-3.292l1.875,6.667h2.25l3.375-7.5h-2.25Z" transform="translate(-48.533 -180.908)"/><path class="b" d="M54.325,186.409l-.208-1.083a6.041,6.041,0,0,0-2.917-3.292l1.875,6.667h2.25l3.375-7.5H56.867Z" transform="translate(-48.533 -180.908)"/><path class="c" d="M0,180.4l.375.083a7.028,7.028,0,0,1,5.209,4.084l-.75-3.542c-.125-.5-.5-.625-.958-.625Z" transform="translate(0 -180.15)"/><path class="d" d="M0,180.4H0c2.667.625,4.875,2.25,5.584,4.125l-.708-2.959a1.017,1.017,0,0,0-1-.792Z" transform="translate(0 -180.15)"/><path class="e" d="M0,180.4H0c2.667.625,4.875,2.25,5.584,4.125l-.5-1.625a1.469,1.469,0,0,0-.875-1.208Z" transform="translate(0 -180.15)"/><g transform="translate(2.709 1.083)"><path class="f" d="M57.167,200.567,55.75,199.15l-.667,1.583-.167-1.042A6.041,6.041,0,0,0,52,196.4l1.875,6.667h2.25Z" transform="translate(-52 -196.4)"/><path class="f" d="M186.925,291.034l-1.792-1.834-.333,1.834Z" transform="translate(-177.883 -284.366)"/><path class="f" d="M251.625,274.8h0c.167.167.25.292.208.458,0,.5-.667.75-1.25.75a4.529,4.529,0,0,1-2-.417l-.292-.125L248,277.175a6.759,6.759,0,0,0,2.375.417,4.126,4.126,0,0,0,3.042-1.042Z" transform="translate(-237.791 -270.716)"/><path class="f" d="M364,225.059h1.958l.417-1.25h2.667l.25,1.25h2l-.708-3.042-2.5-2.417.125.667s.417,1.875.5,2.292h-1.75c.167-.417.833-2.209.833-2.209s.167-.458.292-.75" transform="translate(-347.748 -218.392)"/></g></g></svg>