<svg xmlns="http://www.w3.org/2000/svg" width="80.999" height="90" viewBox="0 0 80.999 90"><defs><style>.a{fill:#f47f31;}.b{fill:#eb6a2f;}.c{fill:#7da8ff;}.d{fill:#7092ff;}.e{fill:#365e7d;}.f{fill:#ffdc67;}.g{fill:#95d6a4;}.h{fill:#ccf49f;}.i{fill:#78c2a4;}.j{fill:#fc974d;}</style></defs><g transform="translate(-25.6)"><path class="a" d="M411.506,290.133h5.049v6h-5.049Z" transform="translate(-318.072 -239.134)"/><path class="b" d="M97.6,171.225V156.6a3,3,0,0,0-3-3h-63a6,6,0,0,0-6,6.169v11.456Z" transform="translate(-0.001 -126.6)"/><g transform="translate(31.6)"><path class="c" d="M90.276,39.543H59.733V2.9A2.9,2.9,0,0,1,62.63,0h3.1l3,.634,3-.634h15.1a2.9,2.9,0,0,1,2.9,2.9V7.5h.543Z" transform="translate(-59.733 0)"/><path class="d" d="M194.388,0h-4.165a2.9,2.9,0,0,1,2.9,2.9V39.543h4.165V2.9a2.9,2.9,0,0,0-2.9-2.9Z" transform="translate(-167.286)"/><path class="e" d="M93.867,0h6V39.543h-6Z" transform="translate(-87.867)"/><path class="f" d="M166.728,43.133H163.54a1.406,1.406,0,0,1-1.406-1.406V35.539a1.406,1.406,0,0,1,1.406-1.406h3.187a1.406,1.406,0,0,1,1.406,1.406v6.187A1.406,1.406,0,0,1,166.728,43.133Z" transform="translate(-144.134 -28.133)"/></g><g transform="translate(61.6 6)"><path class="g" d="M260.4,67.677V35.634a1.5,1.5,0,0,0-1.5-1.5h-27a1.5,1.5,0,0,0-1.5,1.5V67.677h6l9-3.543,9,3.543h6Z" transform="translate(-230.401 -34.134)"/><path class="h" d="M282.533,95.809V72.119a.747.747,0,0,0-.584-.73,3.486,3.486,0,0,1-2.539-2.542.745.745,0,0,0-.729-.581H268.386a.747.747,0,0,0-.73.584,3.486,3.486,0,0,1-2.542,2.539.745.745,0,0,0-.581.729v23.69" transform="translate(-258.533 -62.266)"/><circle class="g" cx="3" cy="3" r="3" transform="translate(11.397 26.25) rotate(-76.7)"/><g transform="translate(13.642 10.642)"><path class="g" d="M309.365,100.39a1.358,1.358,0,0,1-1.358-1.358v-3a1.358,1.358,0,1,1,2.716,0v3A1.358,1.358,0,0,1,309.365,100.39Z" transform="translate(-308.007 -94.674)"/></g><path class="i" d="M373,34.133h-4.165a1.5,1.5,0,0,1,1.5,1.5V67.676H374.5V35.633a1.5,1.5,0,0,0-1.5-1.5Z" transform="translate(-344.504 -34.133)"/></g><path class="j" d="M97.6,241.732a3,3,0,0,1-3,3h-63a6,6,0,0,1-6-6v-51l0,.169a6.081,6.081,0,0,0,6.122,5.831H94.6a3,3,0,0,1,3,3v45Z" transform="translate(0 -154.733)"/><path class="a" d="M398.6,221.867H394.44a3,3,0,0,1,3,3v45a3,3,0,0,1-3,3H398.6a3,3,0,0,0,3-3v-45a3,3,0,0,0-3-3Z" transform="translate(-304.006 -182.867)"/><path class="f" d="M87.394,449.734H78.206a1.406,1.406,0,0,1-1.406-1.406V445.14a1.406,1.406,0,0,1,1.406-1.406h9.187A1.406,1.406,0,0,1,88.8,445.14v3.187A1.406,1.406,0,0,1,87.394,449.734Z" transform="translate(-42.2 -365.735)"/><path class="a" d="M336.733,290.133h3a6,6,0,0,1,6,6v12a6,6,0,0,1-6,6h-21a3,3,0,0,1-3-3v-12a3,3,0,0,1,3-3h18Z" transform="translate(-239.134 -239.134)"/><path class="b" d="M432.738,290.133h-3v.114a6,6,0,0,1,4.835,5.886v12a6,6,0,0,1-6,6h4.165a6,6,0,0,0,6-6v-12A6,6,0,0,0,432.738,290.133Z" transform="translate(-332.139 -239.134)"/><circle class="f" cx="3" cy="3" r="3" transform="matrix(0.407, -0.914, 0.914, 0.407, 81.68, 67.499)"/></g></svg>